# xmcd
# 
# Track frame offsets:
#     150
#     18759
#     34786
#     50606
#     69907
#     91489
#     107182
#     121755
#     138752
#     156326
#     174729
#     209706
# 
# Disc length: 3857
# 
# Revision: 9
# Processed by: cddbd v1.5.2PL0 Copyright (c) Steve Scherf et al.
# Submitted via: BonkEnc v1.0.8
# 
DISCID=a20f0f0c
DTITLE=James Morrison - Undiscovered
DYEAR=2006
DGENRE=Unknown
TTITLE0=Under The Influence
TTITLE1=You Give Me Something
TTITLE2=Wonderful World
TTITLE3=The Pieces Don´t Fit Anymore
TTITLE4=One Last Chance
TTITLE5=Undiscovered
TTITLE6=The Letter
TTITLE7=Call The Police
TTITLE8=This Boy
TTITLE9=If The Rain Must Fall
TTITLE10=The Last Goodbye
TTITLE11=Video
EXTD=YEAR: 2006
EXTT0=
EXTT1=
EXTT2=
EXTT3=
EXTT4=
EXTT5=
EXTT6=
EXTT7=
EXTT8=
EXTT9=
EXTT10=
EXTT11=
PLAYORDER=
